<svg width="107" height="80" viewBox="0 0 107 80" fill="none" xmlns="http://www.w3.org/2000/svg">
<path d="M46.961 80C46.961 80 54.0513 79.384 56.0475 74.6926C58.1118 69.8384 54.2053 67.854 54.2053 67.854C54.2053 67.854 59.874 68.0287 61.9709 62.1053C63.9494 56.5225 59.1336 53.9606 59.1336 53.9606C59.1336 53.9606 64.675 53.0513 66.2921 47.1723C67.6515 42.2233 62.8358 38.536 62.8358 38.536H98.9924C101.833 38.536 106.619 36.9307 106.622 31.0043C106.628 25.0809 101.708 23.7274 98.9924 23.7274H38.2772C35.3155 23.7274 35.3155 20.7657 38.2772 20.7657H46.1732C57.404 20.7657 64.367 14.7297 66.2891 12.618C68.2142 10.5063 69.1886 7.68081 68.463 4.26595C67.2339 -1.52717 62.7765 -0.262516 58.9944 1.37827C49.8783 5.33809 36.8882 8.05398 30.7456 8.8803C13.3958 11.223 0.017777 26.0849 6.69882e-06 44.0773C-0.0118402 63.7017 15.6912 79.9852 35.3155 80H46.961Z" fill="#FFDC5D"/>
</svg>
