<svg width="240" height="240" viewBox="0 0 240 240" fill="none" xmlns="http://www.w3.org/2000/svg">
<path d="M239.866 120C239.889 113.93 237.786 108.043 233.921 103.363C230.056 98.6819 224.674 95.5025 218.709 94.3767C212.744 93.2509 206.573 94.2497 201.268 97.1997C195.963 100.15 191.859 104.864 189.668 110.525C189.476 111.013 189.142 111.432 188.709 111.727C188.276 112.023 187.764 112.182 187.239 112.183H130.423C129.732 112.183 129.069 111.908 128.581 111.419C128.092 110.931 127.817 110.268 127.817 109.577V52.7606C127.818 52.2363 127.977 51.7245 128.273 51.2915C128.568 50.8584 128.987 50.5241 129.475 50.332C135.133 48.1233 139.843 44.0069 142.789 38.6943C145.735 33.3818 146.732 27.207 145.608 21.2373C144.484 15.2675 141.31 9.87791 136.634 6.00011C131.958 2.12232 126.075 0 120 0C113.925 0 108.042 2.12232 103.366 6.00011C98.6899 9.87791 95.5158 15.2675 94.392 21.2373C93.2682 27.207 94.2655 33.3818 97.2114 38.6943C100.157 44.0069 104.867 48.1233 110.525 50.332C111.013 50.5241 111.432 50.8584 111.727 51.2915C112.023 51.7245 112.182 52.2363 112.183 52.7606V109.577C112.183 110.268 111.908 110.931 111.419 111.419C110.931 111.908 110.268 112.183 109.577 112.183H52.7606C52.2363 112.182 51.7245 112.023 51.2915 111.727C50.8584 111.432 50.5241 111.013 50.332 110.525C48.1233 104.867 44.0069 100.157 38.6944 97.2113C33.3818 94.2655 27.207 93.2682 21.2373 94.392C15.2675 95.5158 9.87791 98.6899 6.00011 103.366C2.12232 108.042 0 113.925 0 120C0 126.075 2.12232 131.958 6.00011 136.634C9.87791 141.31 15.2675 144.484 21.2373 145.608C27.207 146.732 33.3818 145.735 38.6944 142.789C44.0069 139.843 48.1233 135.133 50.332 129.475C50.5241 128.987 50.8584 128.568 51.2915 128.273C51.7245 127.977 52.2363 127.818 52.7606 127.817H109.577C110.268 127.817 110.931 128.092 111.419 128.581C111.908 129.069 112.183 129.732 112.183 130.423V187.239C112.182 187.764 112.023 188.276 111.727 188.709C111.432 189.142 111.013 189.476 110.525 189.668C104.867 191.877 100.157 195.993 97.2114 201.306C94.2655 206.618 93.2682 212.793 94.392 218.763C95.5158 224.733 98.6899 230.122 103.366 234C108.042 237.878 113.925 240 120 240C126.075 240 131.958 237.878 136.634 234C141.31 230.122 144.484 224.733 145.608 218.763C146.732 212.793 145.735 206.618 142.789 201.306C139.843 195.993 135.133 191.877 129.475 189.668C128.987 189.476 128.568 189.142 128.273 188.709C127.977 188.276 127.818 187.764 127.817 187.239V130.423C127.817 129.732 128.092 129.069 128.581 128.581C129.069 128.092 129.732 127.817 130.423 127.817H187.239C187.764 127.818 188.276 127.977 188.709 128.273C189.142 128.568 189.476 128.987 189.668 129.475C191.859 135.136 195.963 139.85 201.268 142.8C206.573 145.75 212.744 146.749 218.709 145.623C224.674 144.497 230.056 141.318 233.921 136.637C237.786 131.957 239.889 126.07 239.866 120V120Z" fill="url(#paint0_linear)"/>
<path fill-rule="evenodd" clip-rule="evenodd" d="M140.534 88.4183C139.765 89.134 139.149 89.997 138.722 90.9559C138.295 91.9148 138.065 92.95 138.047 93.9996C138.028 95.0493 138.221 96.0919 138.614 97.0653C139.008 98.0387 139.593 98.9229 140.335 99.6652C141.077 100.408 141.962 100.993 142.935 101.386C143.908 101.779 144.951 101.972 146.001 101.954C147.05 101.935 148.085 101.705 149.044 101.278C150.003 100.851 150.866 100.235 151.582 99.4668L173.054 77.9952C173.427 77.6224 173.906 77.372 174.425 77.2771C174.944 77.1822 175.48 77.2472 175.962 77.4636C179.237 78.9464 182.789 79.7173 186.385 79.7254C191.539 79.7264 196.578 78.1986 200.864 75.3354C205.15 72.4722 208.491 68.4022 210.464 63.6402C212.436 58.8782 212.952 53.6381 211.946 48.5827C210.941 43.5274 208.458 38.8839 204.813 35.2396C199.852 30.4975 193.253 27.8511 186.39 27.8511C179.527 27.8511 172.928 30.4975 167.967 35.2396C165.538 37.6534 163.612 40.5251 162.301 43.6883C160.99 46.8515 160.319 50.2434 160.327 53.6677C160.335 57.2629 161.106 60.8155 162.589 64.0908C162.805 64.5723 162.87 65.1082 162.775 65.6275C162.68 66.1468 162.43 66.625 162.057 66.9988L140.534 88.4183ZM53.6317 27.859C60.4931 27.859 67.0909 30.5022 72.0545 35.2396C74.4828 37.6447 76.4108 40.5067 77.7275 43.6606C79.0441 46.8145 79.7233 50.1978 79.7259 53.6155C79.7178 57.2108 78.9469 60.7634 77.4641 64.0386C77.2477 64.5202 77.1827 65.056 77.2776 65.5753C77.3725 66.0946 77.6229 66.5729 77.9957 66.9467L99.5194 88.4183C100.9 89.9002 101.652 91.8602 101.616 93.8854C101.581 95.9107 100.76 97.8429 99.3278 99.2752C97.8955 100.707 95.9633 101.528 93.938 101.564C91.9128 101.599 89.9528 100.848 88.4709 99.4668L66.9993 77.9952C66.6255 77.6224 66.1472 77.372 65.6279 77.2771C65.1086 77.1822 64.5728 77.2472 64.0912 77.4636C60.816 78.9464 57.2634 79.7173 53.6681 79.7254C48.511 79.7326 43.4678 78.2093 39.1769 75.3485C34.886 72.4877 31.5405 68.418 29.564 63.6546C27.5875 58.8913 27.0688 53.6486 28.0737 48.5904C29.0785 43.5321 31.5617 38.8858 35.2088 35.2396C40.1724 30.5022 46.7702 27.859 53.6317 27.859ZM186.112 211.581C179.404 211.731 172.897 209.288 167.946 204.761C165.518 202.356 163.59 199.494 162.273 196.34C160.956 193.186 160.277 189.803 160.275 186.385C160.283 182.79 161.054 179.237 162.536 175.962C162.753 175.48 162.818 174.945 162.723 174.425C162.628 173.906 162.378 173.428 162.005 173.054L140.533 151.582C139.152 150.1 138.401 148.14 138.436 146.115C138.472 144.09 139.292 142.158 140.725 140.725C142.157 139.293 144.089 138.473 146.114 138.437C148.14 138.401 150.1 139.153 151.582 140.534L173.168 162.172C173.532 162.539 173.998 162.788 174.505 162.888C175.012 162.989 175.537 162.935 176.013 162.735C180.791 160.706 186.058 160.119 191.166 161.045C196.273 161.971 200.999 164.37 204.76 167.947C209.288 172.898 211.731 179.405 211.581 186.113C211.431 192.82 208.699 199.212 203.955 203.956C199.211 208.7 192.82 211.431 186.112 211.581ZM96.932 138.838C97.8799 139.231 98.741 139.807 99.4661 140.534C100.909 141.993 101.718 143.962 101.72 146.014C101.722 148.066 100.916 150.036 99.4765 151.499L78.0049 172.97C77.6322 173.344 77.3818 173.822 77.2868 174.342C77.1919 174.861 77.2569 175.397 77.4733 175.878C78.9561 179.154 79.727 182.706 79.7352 186.301C79.7361 190.587 78.6801 194.806 76.6608 198.586C74.6415 202.366 71.7211 205.589 68.1585 207.97C64.5958 210.352 60.5008 211.818 56.2362 212.239C51.9716 212.66 47.6691 212.022 43.7097 210.383C39.7503 208.744 36.2563 206.153 33.5372 202.841C30.818 199.529 28.9578 195.597 28.1211 191.394C27.2844 187.192 27.4972 182.847 28.7406 178.746C29.984 174.645 32.2196 170.914 35.2493 167.884C39.0125 164.309 43.7378 161.912 48.8447 160.986C53.9517 160.06 59.2178 160.646 63.9963 162.672C64.4727 162.872 64.998 162.926 65.505 162.825C66.0119 162.725 66.4774 162.476 66.8418 162.109L88.4176 140.534C89.1427 139.807 90.0038 139.231 90.9517 138.838C91.8996 138.445 92.9157 138.243 93.9418 138.243C94.968 138.243 95.9841 138.445 96.932 138.838Z" fill="url(#paint1_linear)"/>
<defs>
<linearGradient id="paint0_linear" x1="119.933" y1="0" x2="119.933" y2="240" gradientUnits="userSpaceOnUse">
<stop stop-color="#FFAF56"/>
<stop offset="1" stop-color="#FB37C2"/>
</linearGradient>
<linearGradient id="paint1_linear" x1="120.011" y1="27.8511" x2="120.011" y2="212.365" gradientUnits="userSpaceOnUse">
<stop stop-color="#33C2EF"/>
<stop offset="1" stop-color="#823CFC"/>
</linearGradient>
</defs>
</svg>
